%TF.GenerationSoftware,KiCad,Pcbnew,8.0.3*%
%TF.CreationDate,2024-07-16T20:28:35-05:00*%
%TF.ProjectId,XiaoSensePcb,5869616f-5365-46e7-9365-5063622e6b69,rev?*%
%TF.SameCoordinates,Original*%
%TF.FileFunction,Copper,L1,Top*%
%TF.FilePolarity,Positive*%
%FSLAX46Y46*%
G04 Gerber Fmt 4.6, Leading zero omitted, Abs format (unit mm)*
G04 Created by KiCad (PCBNEW 8.0.3) date 2024-07-16 20:28:35*
%MOMM*%
%LPD*%
G01*
G04 APERTURE LIST*
G04 Aperture macros list*
%AMRoundRect*
0 Rectangle with rounded corners*
0 $1 Rounding radius*
0 $2 $3 $4 $5 $6 $7 $8 $9 X,Y pos of 4 corners*
0 Add a 4 corners polygon primitive as box body*
4,1,4,$2,$3,$4,$5,$6,$7,$8,$9,$2,$3,0*
0 Add four circle primitives for the rounded corners*
1,1,$1+$1,$2,$3*
1,1,$1+$1,$4,$5*
1,1,$1+$1,$6,$7*
1,1,$1+$1,$8,$9*
0 Add four rect primitives between the rounded corners*
20,1,$1+$1,$2,$3,$4,$5,0*
20,1,$1+$1,$4,$5,$6,$7,0*
20,1,$1+$1,$6,$7,$8,$9,0*
20,1,$1+$1,$8,$9,$2,$3,0*%
G04 Aperture macros list end*
%TA.AperFunction,SMDPad,CuDef*%
%ADD10R,3.000000X2.000000*%
%TD*%
%TA.AperFunction,SMDPad,CuDef*%
%ADD11C,1.500000*%
%TD*%
%TA.AperFunction,SMDPad,CuDef*%
%ADD12R,1.300000X2.300000*%
%TD*%
%TA.AperFunction,SMDPad,CuDef*%
%ADD13R,2.300000X1.300000*%
%TD*%
%TA.AperFunction,SMDPad,CuDef*%
%ADD14RoundRect,0.250001X1.449999X-0.499999X1.449999X0.499999X-1.449999X0.499999X-1.449999X-0.499999X0*%
%TD*%
%TA.AperFunction,SMDPad,CuDef*%
%ADD15RoundRect,0.250000X1.500000X-0.250000X1.500000X0.250000X-1.500000X0.250000X-1.500000X-0.250000X0*%
%TD*%
%TA.AperFunction,SMDPad,CuDef*%
%ADD16RoundRect,0.250000X-0.250000X-0.750000X0.250000X-0.750000X0.250000X0.750000X-0.250000X0.750000X0*%
%TD*%
%TA.AperFunction,ViaPad*%
%ADD17C,0.600000*%
%TD*%
%TA.AperFunction,Conductor*%
%ADD18C,0.400000*%
%TD*%
G04 APERTURE END LIST*
D10*
%TO.P,U1,1,P0.02_A0_D0*%
%TO.N,unconnected-(U1-P0.02_A0_D0-Pad1)*%
X89500000Y-84380000D03*
%TO.P,U1,2,P0.03_A1_D1*%
%TO.N,unconnected-(U1-P0.03_A1_D1-Pad2)*%
X89500000Y-86920000D03*
%TO.P,U1,3,P0.28_A2_D2*%
%TO.N,unconnected-(U1-P0.28_A2_D2-Pad3)*%
X89500000Y-89460000D03*
%TO.P,U1,4,P0.29_A3_D3*%
%TO.N,unconnected-(U1-P0.29_A3_D3-Pad4)*%
X89500000Y-92000000D03*
%TO.P,U1,5,P0.04_A4_D4_SDA*%
%TO.N,unconnected-(U1-P0.04_A4_D4_SDA-Pad5)*%
X89500000Y-94540000D03*
%TO.P,U1,6,P0.05_A5_D5_SCL*%
%TO.N,unconnected-(U1-P0.05_A5_D5_SCL-Pad6)*%
X89500000Y-97080000D03*
%TO.P,U1,7,P1.11_D6_TX*%
%TO.N,unconnected-(U1-P1.11_D6_TX-Pad7)*%
X89500000Y-99620000D03*
%TO.P,U1,8,P1.12_D7_RX*%
%TO.N,unconnected-(U1-P1.12_D7_RX-Pad8)*%
X106500000Y-99620000D03*
%TO.P,U1,9,P1.13_D8_SCK*%
%TO.N,unconnected-(U1-P1.13_D8_SCK-Pad9)*%
X106500000Y-97080000D03*
%TO.P,U1,10,P1.14_D9_MISO*%
%TO.N,unconnected-(U1-P1.14_D9_MISO-Pad10)*%
X106500000Y-94540000D03*
%TO.P,U1,11,P1.15_D10_MOSI*%
%TO.N,unconnected-(U1-P1.15_D10_MOSI-Pad11)*%
X106500000Y-92000000D03*
%TO.P,U1,12,3V3*%
%TO.N,unconnected-(U1-3V3-Pad12)*%
X106500000Y-89460000D03*
%TO.P,U1,13,GND*%
%TO.N,unconnected-(U1-GND-Pad13)*%
X106500000Y-86920000D03*
%TO.P,U1,14,5V*%
%TO.N,unconnected-(U1-5V-Pad14)*%
X106500000Y-84380000D03*
D11*
%TO.P,U1,15,PA30_SWCLK*%
%TO.N,unconnected-(U1-PA30_SWCLK-Pad15)*%
X96730000Y-83610000D03*
%TO.P,U1,16,PA31_SWDIO*%
%TO.N,unconnected-(U1-PA31_SWDIO-Pad16)*%
X99270000Y-83610000D03*
%TO.P,U1,17,GND*%
%TO.N,unconnected-(U1-GND-Pad17)*%
X96730000Y-86150000D03*
%TO.P,U1,18,RESET*%
%TO.N,unconnected-(U1-RESET-Pad18)*%
X99270000Y-86150000D03*
D12*
%TO.P,U1,19,P0.09_NFC1*%
%TO.N,unconnected-(U1-P0.09_NFC1-Pad19)*%
X101800000Y-101250000D03*
%TO.P,U1,20,P0.10_NFC2*%
%TO.N,unconnected-(U1-P0.10_NFC2-Pad20)*%
X103700000Y-101250000D03*
D13*
%TO.P,U1,21,BAT-*%
%TO.N,Net-(B-1-Pin_1)*%
X93500000Y-89800000D03*
%TO.P,U1,22,BAT+*%
%TO.N,Net-(B+1-Pin_1)*%
X93500000Y-91700000D03*
%TD*%
D14*
%TO.P,J1,MP*%
%TO.N,N/C*%
X106000000Y-105150000D03*
X106000000Y-111850000D03*
D15*
%TO.P,J1,2,Pin_2*%
%TO.N,Net-(B-1-Pin_1)*%
X100250000Y-107500000D03*
%TO.P,J1,1,Pin_1*%
%TO.N,Net-(B+1-Pin_1)*%
X100250000Y-109500000D03*
%TD*%
D16*
%TO.P,Bat+,1,Pin_1*%
%TO.N,Net-(B+1-Pin_1)*%
X88500000Y-105890000D03*
%TD*%
%TO.P,Bat-,1,Pin_1*%
%TO.N,Net-(B-1-Pin_1)*%
X88500000Y-110500000D03*
%TD*%
D17*
%TO.N,Net-(B-1-Pin_1)*%
X96000000Y-111000000D03*
X96000000Y-104000000D03*
%TD*%
D18*
%TO.N,Net-(B-1-Pin_1)*%
X93000000Y-111000000D02*
X92500000Y-110500000D01*
X96000000Y-111000000D02*
X93000000Y-111000000D01*
X92500000Y-110500000D02*
X88500000Y-110500000D01*
%TO.N,Net-(B+1-Pin_1)*%
X93500000Y-104000000D02*
X91610000Y-105890000D01*
X91610000Y-105890000D02*
X88500000Y-105890000D01*
X93500000Y-104000000D02*
X93500000Y-107000000D01*
X93500000Y-91700000D02*
X93500000Y-104000000D01*
%TO.N,Net-(B-1-Pin_1)*%
X97000000Y-103000000D02*
X96000000Y-104000000D01*
X97000000Y-106500000D02*
X97000000Y-103000000D01*
X97000000Y-103000000D02*
X97000000Y-91000000D01*
X95800000Y-89800000D02*
X93500000Y-89800000D01*
X98000000Y-107500000D02*
X97000000Y-106500000D01*
X97000000Y-91000000D02*
X95800000Y-89800000D01*
X100250000Y-107500000D02*
X98000000Y-107500000D01*
%TO.N,Net-(B+1-Pin_1)*%
X96000000Y-109500000D02*
X100250000Y-109500000D01*
X93500000Y-107000000D02*
X96000000Y-109500000D01*
%TD*%
M02*
