%TF.GenerationSoftware,KiCad,Pcbnew,8.0.3*%
%TF.CreationDate,2024-07-16T20:28:35-05:00*%
%TF.ProjectId,XiaoSensePcb,5869616f-5365-46e7-9365-5063622e6b69,rev?*%
%TF.SameCoordinates,Original*%
%TF.FileFunction,Legend,Top*%
%TF.FilePolarity,Positive*%
%FSLAX46Y46*%
G04 Gerber Fmt 4.6, Leading zero omitted, Abs format (unit mm)*
G04 Created by KiCad (PCBNEW 8.0.3) date 2024-07-16 20:28:35*
%MOMM*%
%LPD*%
G01*
G04 APERTURE LIST*
G04 Aperture macros list*
%AMRoundRect*
0 Rectangle with rounded corners*
0 $1 Rounding radius*
0 $2 $3 $4 $5 $6 $7 $8 $9 X,Y pos of 4 corners*
0 Add a 4 corners polygon primitive as box body*
4,1,4,$2,$3,$4,$5,$6,$7,$8,$9,$2,$3,0*
0 Add four circle primitives for the rounded corners*
1,1,$1+$1,$2,$3*
1,1,$1+$1,$4,$5*
1,1,$1+$1,$6,$7*
1,1,$1+$1,$8,$9*
0 Add four rect primitives between the rounded corners*
20,1,$1+$1,$2,$3,$4,$5,0*
20,1,$1+$1,$4,$5,$6,$7,0*
20,1,$1+$1,$6,$7,$8,$9,0*
20,1,$1+$1,$8,$9,$2,$3,0*%
G04 Aperture macros list end*
%ADD10C,0.101600*%
%ADD11C,0.150000*%
%ADD12C,0.127000*%
%ADD13C,0.120000*%
%ADD14C,0.254000*%
%ADD15C,0.025400*%
%ADD16R,3.000000X2.000000*%
%ADD17C,1.500000*%
%ADD18R,1.300000X2.300000*%
%ADD19R,2.300000X1.300000*%
%ADD20RoundRect,0.250001X1.449999X-0.499999X1.449999X0.499999X-1.449999X0.499999X-1.449999X-0.499999X0*%
%ADD21RoundRect,0.250000X1.500000X-0.250000X1.500000X0.250000X-1.500000X0.250000X-1.500000X-0.250000X0*%
%ADD22RoundRect,0.250000X-0.250000X-0.750000X0.250000X-0.750000X0.250000X0.750000X-0.250000X0.750000X0*%
G04 APERTURE END LIST*
D10*
X97322666Y-94056985D02*
X97322666Y-94776652D01*
X97322666Y-94776652D02*
X97365000Y-94861318D01*
X97365000Y-94861318D02*
X97407333Y-94903652D01*
X97407333Y-94903652D02*
X97492000Y-94945985D01*
X97492000Y-94945985D02*
X97661333Y-94945985D01*
X97661333Y-94945985D02*
X97746000Y-94903652D01*
X97746000Y-94903652D02*
X97788333Y-94861318D01*
X97788333Y-94861318D02*
X97830666Y-94776652D01*
X97830666Y-94776652D02*
X97830666Y-94056985D01*
X98719666Y-94945985D02*
X98211666Y-94945985D01*
X98465666Y-94945985D02*
X98465666Y-94056985D01*
X98465666Y-94056985D02*
X98380999Y-94183985D01*
X98380999Y-94183985D02*
X98296333Y-94268652D01*
X98296333Y-94268652D02*
X98211666Y-94310985D01*
D11*
X96476191Y-97954819D02*
X97142857Y-98954819D01*
X97142857Y-97954819D02*
X96476191Y-98954819D01*
X97523810Y-98954819D02*
X97523810Y-97954819D01*
X97952381Y-98669104D02*
X98428571Y-98669104D01*
X97857143Y-98954819D02*
X98190476Y-97954819D01*
X98190476Y-97954819D02*
X98523809Y-98954819D01*
X99047619Y-97954819D02*
X99238095Y-97954819D01*
X99238095Y-97954819D02*
X99333333Y-98002438D01*
X99333333Y-98002438D02*
X99428571Y-98097676D01*
X99428571Y-98097676D02*
X99476190Y-98288152D01*
X99476190Y-98288152D02*
X99476190Y-98621485D01*
X99476190Y-98621485D02*
X99428571Y-98811961D01*
X99428571Y-98811961D02*
X99333333Y-98907200D01*
X99333333Y-98907200D02*
X99238095Y-98954819D01*
X99238095Y-98954819D02*
X99047619Y-98954819D01*
X99047619Y-98954819D02*
X98952381Y-98907200D01*
X98952381Y-98907200D02*
X98857143Y-98811961D01*
X98857143Y-98811961D02*
X98809524Y-98621485D01*
X98809524Y-98621485D02*
X98809524Y-98288152D01*
X98809524Y-98288152D02*
X98857143Y-98097676D01*
X98857143Y-98097676D02*
X98952381Y-98002438D01*
X98952381Y-98002438D02*
X99047619Y-97954819D01*
X93238095Y-96907200D02*
X93380952Y-96954819D01*
X93380952Y-96954819D02*
X93619047Y-96954819D01*
X93619047Y-96954819D02*
X93714285Y-96907200D01*
X93714285Y-96907200D02*
X93761904Y-96859580D01*
X93761904Y-96859580D02*
X93809523Y-96764342D01*
X93809523Y-96764342D02*
X93809523Y-96669104D01*
X93809523Y-96669104D02*
X93761904Y-96573866D01*
X93761904Y-96573866D02*
X93714285Y-96526247D01*
X93714285Y-96526247D02*
X93619047Y-96478628D01*
X93619047Y-96478628D02*
X93428571Y-96431009D01*
X93428571Y-96431009D02*
X93333333Y-96383390D01*
X93333333Y-96383390D02*
X93285714Y-96335771D01*
X93285714Y-96335771D02*
X93238095Y-96240533D01*
X93238095Y-96240533D02*
X93238095Y-96145295D01*
X93238095Y-96145295D02*
X93285714Y-96050057D01*
X93285714Y-96050057D02*
X93333333Y-96002438D01*
X93333333Y-96002438D02*
X93428571Y-95954819D01*
X93428571Y-95954819D02*
X93666666Y-95954819D01*
X93666666Y-95954819D02*
X93809523Y-96002438D01*
X94619047Y-96907200D02*
X94523809Y-96954819D01*
X94523809Y-96954819D02*
X94333333Y-96954819D01*
X94333333Y-96954819D02*
X94238095Y-96907200D01*
X94238095Y-96907200D02*
X94190476Y-96811961D01*
X94190476Y-96811961D02*
X94190476Y-96431009D01*
X94190476Y-96431009D02*
X94238095Y-96335771D01*
X94238095Y-96335771D02*
X94333333Y-96288152D01*
X94333333Y-96288152D02*
X94523809Y-96288152D01*
X94523809Y-96288152D02*
X94619047Y-96335771D01*
X94619047Y-96335771D02*
X94666666Y-96431009D01*
X94666666Y-96431009D02*
X94666666Y-96526247D01*
X94666666Y-96526247D02*
X94190476Y-96621485D01*
X95476190Y-96907200D02*
X95380952Y-96954819D01*
X95380952Y-96954819D02*
X95190476Y-96954819D01*
X95190476Y-96954819D02*
X95095238Y-96907200D01*
X95095238Y-96907200D02*
X95047619Y-96811961D01*
X95047619Y-96811961D02*
X95047619Y-96431009D01*
X95047619Y-96431009D02*
X95095238Y-96335771D01*
X95095238Y-96335771D02*
X95190476Y-96288152D01*
X95190476Y-96288152D02*
X95380952Y-96288152D01*
X95380952Y-96288152D02*
X95476190Y-96335771D01*
X95476190Y-96335771D02*
X95523809Y-96431009D01*
X95523809Y-96431009D02*
X95523809Y-96526247D01*
X95523809Y-96526247D02*
X95047619Y-96621485D01*
X96333333Y-96907200D02*
X96238095Y-96954819D01*
X96238095Y-96954819D02*
X96047619Y-96954819D01*
X96047619Y-96954819D02*
X95952381Y-96907200D01*
X95952381Y-96907200D02*
X95904762Y-96811961D01*
X95904762Y-96811961D02*
X95904762Y-96431009D01*
X95904762Y-96431009D02*
X95952381Y-96335771D01*
X95952381Y-96335771D02*
X96047619Y-96288152D01*
X96047619Y-96288152D02*
X96238095Y-96288152D01*
X96238095Y-96288152D02*
X96333333Y-96335771D01*
X96333333Y-96335771D02*
X96380952Y-96431009D01*
X96380952Y-96431009D02*
X96380952Y-96526247D01*
X96380952Y-96526247D02*
X95904762Y-96621485D01*
X97238095Y-96954819D02*
X97238095Y-95954819D01*
X97238095Y-96907200D02*
X97142857Y-96954819D01*
X97142857Y-96954819D02*
X96952381Y-96954819D01*
X96952381Y-96954819D02*
X96857143Y-96907200D01*
X96857143Y-96907200D02*
X96809524Y-96859580D01*
X96809524Y-96859580D02*
X96761905Y-96764342D01*
X96761905Y-96764342D02*
X96761905Y-96478628D01*
X96761905Y-96478628D02*
X96809524Y-96383390D01*
X96809524Y-96383390D02*
X96857143Y-96335771D01*
X96857143Y-96335771D02*
X96952381Y-96288152D01*
X96952381Y-96288152D02*
X97142857Y-96288152D01*
X97142857Y-96288152D02*
X97238095Y-96335771D01*
X98428572Y-96907200D02*
X98571429Y-96954819D01*
X98571429Y-96954819D02*
X98809524Y-96954819D01*
X98809524Y-96954819D02*
X98904762Y-96907200D01*
X98904762Y-96907200D02*
X98952381Y-96859580D01*
X98952381Y-96859580D02*
X99000000Y-96764342D01*
X99000000Y-96764342D02*
X99000000Y-96669104D01*
X99000000Y-96669104D02*
X98952381Y-96573866D01*
X98952381Y-96573866D02*
X98904762Y-96526247D01*
X98904762Y-96526247D02*
X98809524Y-96478628D01*
X98809524Y-96478628D02*
X98619048Y-96431009D01*
X98619048Y-96431009D02*
X98523810Y-96383390D01*
X98523810Y-96383390D02*
X98476191Y-96335771D01*
X98476191Y-96335771D02*
X98428572Y-96240533D01*
X98428572Y-96240533D02*
X98428572Y-96145295D01*
X98428572Y-96145295D02*
X98476191Y-96050057D01*
X98476191Y-96050057D02*
X98523810Y-96002438D01*
X98523810Y-96002438D02*
X98619048Y-95954819D01*
X98619048Y-95954819D02*
X98857143Y-95954819D01*
X98857143Y-95954819D02*
X99000000Y-96002438D01*
X99285715Y-96288152D02*
X99666667Y-96288152D01*
X99428572Y-95954819D02*
X99428572Y-96811961D01*
X99428572Y-96811961D02*
X99476191Y-96907200D01*
X99476191Y-96907200D02*
X99571429Y-96954819D01*
X99571429Y-96954819D02*
X99666667Y-96954819D01*
X100428572Y-96288152D02*
X100428572Y-96954819D01*
X100000001Y-96288152D02*
X100000001Y-96811961D01*
X100000001Y-96811961D02*
X100047620Y-96907200D01*
X100047620Y-96907200D02*
X100142858Y-96954819D01*
X100142858Y-96954819D02*
X100285715Y-96954819D01*
X100285715Y-96954819D02*
X100380953Y-96907200D01*
X100380953Y-96907200D02*
X100428572Y-96859580D01*
X101333334Y-96954819D02*
X101333334Y-95954819D01*
X101333334Y-96907200D02*
X101238096Y-96954819D01*
X101238096Y-96954819D02*
X101047620Y-96954819D01*
X101047620Y-96954819D02*
X100952382Y-96907200D01*
X100952382Y-96907200D02*
X100904763Y-96859580D01*
X100904763Y-96859580D02*
X100857144Y-96764342D01*
X100857144Y-96764342D02*
X100857144Y-96478628D01*
X100857144Y-96478628D02*
X100904763Y-96383390D01*
X100904763Y-96383390D02*
X100952382Y-96335771D01*
X100952382Y-96335771D02*
X101047620Y-96288152D01*
X101047620Y-96288152D02*
X101238096Y-96288152D01*
X101238096Y-96288152D02*
X101333334Y-96335771D01*
X101809525Y-96954819D02*
X101809525Y-96288152D01*
X101809525Y-95954819D02*
X101761906Y-96002438D01*
X101761906Y-96002438D02*
X101809525Y-96050057D01*
X101809525Y-96050057D02*
X101857144Y-96002438D01*
X101857144Y-96002438D02*
X101809525Y-95954819D01*
X101809525Y-95954819D02*
X101809525Y-96050057D01*
X102428572Y-96954819D02*
X102333334Y-96907200D01*
X102333334Y-96907200D02*
X102285715Y-96859580D01*
X102285715Y-96859580D02*
X102238096Y-96764342D01*
X102238096Y-96764342D02*
X102238096Y-96478628D01*
X102238096Y-96478628D02*
X102285715Y-96383390D01*
X102285715Y-96383390D02*
X102333334Y-96335771D01*
X102333334Y-96335771D02*
X102428572Y-96288152D01*
X102428572Y-96288152D02*
X102571429Y-96288152D01*
X102571429Y-96288152D02*
X102666667Y-96335771D01*
X102666667Y-96335771D02*
X102714286Y-96383390D01*
X102714286Y-96383390D02*
X102761905Y-96478628D01*
X102761905Y-96478628D02*
X102761905Y-96764342D01*
X102761905Y-96764342D02*
X102714286Y-96859580D01*
X102714286Y-96859580D02*
X102666667Y-96907200D01*
X102666667Y-96907200D02*
X102571429Y-96954819D01*
X102571429Y-96954819D02*
X102428572Y-96954819D01*
X96754819Y-108833333D02*
X97469104Y-108833333D01*
X97469104Y-108833333D02*
X97611961Y-108880952D01*
X97611961Y-108880952D02*
X97707200Y-108976190D01*
X97707200Y-108976190D02*
X97754819Y-109119047D01*
X97754819Y-109119047D02*
X97754819Y-109214285D01*
X97754819Y-107833333D02*
X97754819Y-108404761D01*
X97754819Y-108119047D02*
X96754819Y-108119047D01*
X96754819Y-108119047D02*
X96897676Y-108214285D01*
X96897676Y-108214285D02*
X96992914Y-108309523D01*
X96992914Y-108309523D02*
X97040533Y-108404761D01*
X87714285Y-103321009D02*
X87857142Y-103368628D01*
X87857142Y-103368628D02*
X87904761Y-103416247D01*
X87904761Y-103416247D02*
X87952380Y-103511485D01*
X87952380Y-103511485D02*
X87952380Y-103654342D01*
X87952380Y-103654342D02*
X87904761Y-103749580D01*
X87904761Y-103749580D02*
X87857142Y-103797200D01*
X87857142Y-103797200D02*
X87761904Y-103844819D01*
X87761904Y-103844819D02*
X87380952Y-103844819D01*
X87380952Y-103844819D02*
X87380952Y-102844819D01*
X87380952Y-102844819D02*
X87714285Y-102844819D01*
X87714285Y-102844819D02*
X87809523Y-102892438D01*
X87809523Y-102892438D02*
X87857142Y-102940057D01*
X87857142Y-102940057D02*
X87904761Y-103035295D01*
X87904761Y-103035295D02*
X87904761Y-103130533D01*
X87904761Y-103130533D02*
X87857142Y-103225771D01*
X87857142Y-103225771D02*
X87809523Y-103273390D01*
X87809523Y-103273390D02*
X87714285Y-103321009D01*
X87714285Y-103321009D02*
X87380952Y-103321009D01*
X88809523Y-103844819D02*
X88809523Y-103321009D01*
X88809523Y-103321009D02*
X88761904Y-103225771D01*
X88761904Y-103225771D02*
X88666666Y-103178152D01*
X88666666Y-103178152D02*
X88476190Y-103178152D01*
X88476190Y-103178152D02*
X88380952Y-103225771D01*
X88809523Y-103797200D02*
X88714285Y-103844819D01*
X88714285Y-103844819D02*
X88476190Y-103844819D01*
X88476190Y-103844819D02*
X88380952Y-103797200D01*
X88380952Y-103797200D02*
X88333333Y-103701961D01*
X88333333Y-103701961D02*
X88333333Y-103606723D01*
X88333333Y-103606723D02*
X88380952Y-103511485D01*
X88380952Y-103511485D02*
X88476190Y-103463866D01*
X88476190Y-103463866D02*
X88714285Y-103463866D01*
X88714285Y-103463866D02*
X88809523Y-103416247D01*
X89142857Y-103178152D02*
X89523809Y-103178152D01*
X89285714Y-102844819D02*
X89285714Y-103701961D01*
X89285714Y-103701961D02*
X89333333Y-103797200D01*
X89333333Y-103797200D02*
X89428571Y-103844819D01*
X89428571Y-103844819D02*
X89523809Y-103844819D01*
X89857143Y-103463866D02*
X90619048Y-103463866D01*
X90238095Y-103844819D02*
X90238095Y-103082914D01*
X87714285Y-112931009D02*
X87857142Y-112978628D01*
X87857142Y-112978628D02*
X87904761Y-113026247D01*
X87904761Y-113026247D02*
X87952380Y-113121485D01*
X87952380Y-113121485D02*
X87952380Y-113264342D01*
X87952380Y-113264342D02*
X87904761Y-113359580D01*
X87904761Y-113359580D02*
X87857142Y-113407200D01*
X87857142Y-113407200D02*
X87761904Y-113454819D01*
X87761904Y-113454819D02*
X87380952Y-113454819D01*
X87380952Y-113454819D02*
X87380952Y-112454819D01*
X87380952Y-112454819D02*
X87714285Y-112454819D01*
X87714285Y-112454819D02*
X87809523Y-112502438D01*
X87809523Y-112502438D02*
X87857142Y-112550057D01*
X87857142Y-112550057D02*
X87904761Y-112645295D01*
X87904761Y-112645295D02*
X87904761Y-112740533D01*
X87904761Y-112740533D02*
X87857142Y-112835771D01*
X87857142Y-112835771D02*
X87809523Y-112883390D01*
X87809523Y-112883390D02*
X87714285Y-112931009D01*
X87714285Y-112931009D02*
X87380952Y-112931009D01*
X88809523Y-113454819D02*
X88809523Y-112931009D01*
X88809523Y-112931009D02*
X88761904Y-112835771D01*
X88761904Y-112835771D02*
X88666666Y-112788152D01*
X88666666Y-112788152D02*
X88476190Y-112788152D01*
X88476190Y-112788152D02*
X88380952Y-112835771D01*
X88809523Y-113407200D02*
X88714285Y-113454819D01*
X88714285Y-113454819D02*
X88476190Y-113454819D01*
X88476190Y-113454819D02*
X88380952Y-113407200D01*
X88380952Y-113407200D02*
X88333333Y-113311961D01*
X88333333Y-113311961D02*
X88333333Y-113216723D01*
X88333333Y-113216723D02*
X88380952Y-113121485D01*
X88380952Y-113121485D02*
X88476190Y-113073866D01*
X88476190Y-113073866D02*
X88714285Y-113073866D01*
X88714285Y-113073866D02*
X88809523Y-113026247D01*
X89142857Y-112788152D02*
X89523809Y-112788152D01*
X89285714Y-112454819D02*
X89285714Y-113311961D01*
X89285714Y-113311961D02*
X89333333Y-113407200D01*
X89333333Y-113407200D02*
X89428571Y-113454819D01*
X89428571Y-113454819D02*
X89523809Y-113454819D01*
X89857143Y-113073866D02*
X90619048Y-113073866D01*
D12*
%TO.C,U1*%
X106900000Y-100500000D02*
X106900000Y-83500000D01*
X102500000Y-87429270D02*
X93500000Y-87429270D01*
X102500000Y-80075970D02*
X102500000Y-87429270D01*
X89100000Y-83500000D02*
X89100000Y-100500000D01*
X93500000Y-80075970D02*
X102500000Y-80075970D01*
X104900000Y-81500910D02*
X91100000Y-81500910D01*
X93500000Y-87429270D02*
X93500000Y-80075970D01*
X91100000Y-102500000D02*
X104900000Y-102500000D01*
D13*
X106900000Y-100500000D02*
G75*
G02*
X104900000Y-102500000I-2000000J0D01*
G01*
X104900000Y-81500000D02*
G75*
G02*
X106900000Y-83500000I-44610J-2044610D01*
G01*
X91100000Y-102500000D02*
G75*
G02*
X89100000Y-100500000I44857J2044857D01*
G01*
X89100000Y-83500000D02*
G75*
G02*
X91100000Y-81500000I2044612J-44612D01*
G01*
D14*
X87127000Y-83200000D02*
G75*
G02*
X86873000Y-83200000I-127000J0D01*
G01*
X86873000Y-83200000D02*
G75*
G02*
X87127000Y-83200000I127000J0D01*
G01*
D15*
X106887713Y-100570850D02*
X106884665Y-100619618D01*
X106880601Y-100668639D01*
X106875268Y-100717407D01*
X106868664Y-100766175D01*
X106861044Y-100814690D01*
X106852153Y-100862950D01*
X106842248Y-100910955D01*
X106889492Y-100521574D01*
X106887713Y-100570850D01*
X89112285Y-83438295D02*
X89115333Y-83389527D01*
X89119397Y-83340506D01*
X89112285Y-83438295D01*
D13*
%TO.C,J1*%
X104040000Y-104440000D02*
X99790000Y-104440000D01*
X99790000Y-104440000D02*
X99790000Y-105460000D01*
X101390000Y-105460000D02*
X101390000Y-106740000D01*
X99790000Y-105460000D02*
X101390000Y-105460000D01*
X101390000Y-110260000D02*
X98500000Y-110260000D01*
X107610000Y-110840000D02*
X107610000Y-106160000D01*
X101390000Y-111540000D02*
X101390000Y-110260000D01*
X99790000Y-111540000D02*
X101390000Y-111540000D01*
X104040000Y-112560000D02*
X99790000Y-112560000D01*
X99790000Y-112560000D02*
X99790000Y-111540000D01*
%TD*%
%LPC*%
D16*
%TO.C,U1*%
X89500000Y-84380000D03*
X89500000Y-86920000D03*
X89500000Y-89460000D03*
X89500000Y-92000000D03*
X89500000Y-94540000D03*
X89500000Y-97080000D03*
X89500000Y-99620000D03*
X106500000Y-99620000D03*
X106500000Y-97080000D03*
X106500000Y-94540000D03*
X106500000Y-92000000D03*
X106500000Y-89460000D03*
X106500000Y-86920000D03*
X106500000Y-84380000D03*
D17*
X96730000Y-83610000D03*
X99270000Y-83610000D03*
X96730000Y-86150000D03*
X99270000Y-86150000D03*
D18*
X101800000Y-101250000D03*
X103700000Y-101250000D03*
D19*
X93500000Y-89800000D03*
X93500000Y-91700000D03*
%TD*%
D20*
%TO.C,J1*%
X106000000Y-105150000D03*
X106000000Y-111850000D03*
D21*
X100250000Y-107500000D03*
X100250000Y-109500000D03*
%TD*%
D22*
%TO.C,Bat+*%
X88500000Y-105890000D03*
%TD*%
%TO.C,Bat-*%
X88500000Y-110500000D03*
%TD*%
%LPD*%
M02*
